<?xml version="1.0" encoding="UTF-8" standalone="no"?>
<!DOCTYPE svg PUBLIC "-//W3C//DTD SVG 1.1//EN" "http://www.w3.org/Graphics/SVG/1.1/DTD/svg11.dtd">
<svg width="100%" height="100%" viewBox="0 0 256 256" version="1.1" xmlns="http://www.w3.org/2000/svg"
     style="fill-rule:evenodd;clip-rule:evenodd;stroke-linejoin:round;stroke-miterlimit:2;">
    <circle id="path1432" cx="128" cy="128" r="128" style="fill:url(#_Linear1);"/>
    <path id="形状结合"
          d="M205.421,142.02L205.421,154.524C205.421,189.262 154.389,209.255 138.746,214.558L133.057,216.5L133.057,194.889L135.836,193.853C160.174,184.806 184.729,169.136 184.729,154.524L184.729,142.02L205.421,142.02ZM128.133,39.5L148.988,45.851L148.988,67.9L128.133,61.527L126.769,61.945L126.769,111.554L148.988,111.554L148.988,131.994L126.769,131.994L126.769,216.197L120.975,214.066C118.286,213.078 113.953,211.396 108.592,208.994L106.074,207.859L106.074,46.223L128.133,39.5ZM99.528,48.299L99.528,70.248L71.271,78.912L71.271,111.554L99.528,111.554L99.528,206.092L93.27,202.913C73.794,193.013 50.579,176.318 50.579,153.008L50.579,142.02L71.271,142.02L71.271,153.008C71.271,157.832 73.812,162.899 78.833,168.117L78.833,131.994L50.579,131.994L50.579,63.223L99.528,48.299ZM155.27,47.777L205.421,63.106L205.421,131.994L175.976,131.994L175.976,161.822C175.976,161.822 169.393,170.346 155.288,177.484C155.288,173.539 155.279,112.889 155.274,75.939L155.27,47.777ZM175.976,76.144L175.976,111.554L184.729,111.554L184.729,78.813L175.976,76.144Z"
          style="fill:white;fill-rule:nonzero;"/>
    <defs>
        <linearGradient id="_Linear1" x1="0" y1="0" x2="1" y2="0" gradientUnits="userSpaceOnUse"
                        gradientTransform="matrix(185.171,169.56,-169.56,185.171,36.4876,42.1469)"><stop offset="0" style="stop-color:rgb(74,105,254);stop-opacity:0.98"/>
            <stop offset="1" style="stop-color:rgb(77,43,217);stop-opacity:0.98"/></linearGradient>
    </defs>
</svg>
